<svg xmlns="http://www.w3.org/2000/svg" width="588.922" height="214.15" viewBox="0 0 588.922 214.15">
  <path id="パス_1027" data-name="パス 1027" d="M-233-30.8a2.244,2.244,0,0,0-1.5.8v1.1a12.842,12.842,0,0,0,4.4,6.2A132.913,132.913,0,0,1-215.4-9.8a3.3,3.3,0,0,0,3.5,1.1,6.484,6.484,0,0,0,2.2-1,1.71,1.71,0,0,0,1.1-2.3l-.3-3a3.573,3.573,0,0,0-.9-2.6,66.392,66.392,0,0,0-7.9-9.5A6.531,6.531,0,0,0-221-29,51.321,51.321,0,0,0-233-30.8Zm-24.2-44.4a14.857,14.857,0,0,0,2.3,3.7,6.756,6.756,0,0,1,1.2,3.7l-.2,7.6c-5.2,1.6-10.9,3.6-17.4,6-1.5.4-3.3.8-5.7,1.2l-5.2.6-.7.9q-.6,0-.6,1.8a41.572,41.572,0,0,0,16.1,9.2,10.739,10.739,0,0,0,7.7-.2l5.5-2.2-.5,23.3a22.994,22.994,0,0,1-.8,6.3,87.72,87.72,0,0,0-15.5-5,84.772,84.772,0,0,1,6.8-13l-.6-1-.7-.4c-1.1,0-1.7.2-1.7.6a118,118,0,0,0-18.5,16.8l-2-2.6c-1.5,0-2.1.3-2.1.8a19.594,19.594,0,0,0-2.3,4.2,3.575,3.575,0,0,0,.4,3.3q3.3,4.95,5.4,7.5a3.721,3.721,0,0,0,2.5,1.2l3.4.4a2.491,2.491,0,0,0,2.2-.4l1.2-.6a1.21,1.21,0,0,0,1.2-1.2A64.4,64.4,0,0,1-273-13.2a48.773,48.773,0,0,1,11,6A32.142,32.142,0,0,1-254.5,0a13.108,13.108,0,0,0,5.8,4.8,2.918,2.918,0,0,0,3.3-.6,25.913,25.913,0,0,0,4-4.8,10.919,10.919,0,0,0,2-6.9l-1.5-40.4a74.013,74.013,0,0,1,7.8-2.8,24.447,24.447,0,0,1,11.9-1.2,2.293,2.293,0,0,0,2.5-1.4l.5-1.7a2.757,2.757,0,0,0-.3-2.2,27.177,27.177,0,0,0-9.5-7.7,7,7,0,0,0-4.2-.5,58.208,58.208,0,0,0-8.9,1.9c.1-1.6.4-4,.7-6.8a4.951,4.951,0,0,0-1.4-4.1,23.921,23.921,0,0,0-6.1-4.9,4.834,4.834,0,0,0-4.8-.1A13.884,13.884,0,0,0-257.2-75.2ZM-172.9-47a124.124,124.124,0,0,1-10.9,33,18.585,18.585,0,0,1-4.3,6.2,2.911,2.911,0,0,0-.6,3.5l1.2,1.8a1.953,1.953,0,0,0,3,.5,81.225,81.225,0,0,0,16.3-16.8,55.355,55.355,0,0,0,9.7-21.7,13.865,13.865,0,0,0-.1-6.1,16.438,16.438,0,0,0-8.8-11.5A12.04,12.04,0,0,0-172-60a3.413,3.413,0,0,0-3.7,1.7,8.518,8.518,0,0,0-.1,6.1A16.328,16.328,0,0,0-172.9-47Zm19.4-23.8c1.2.7,2.1.8,2.8.2l.4.5a185.615,185.615,0,0,0,0,38,165.54,165.54,0,0,1-.1,22.3,9.222,9.222,0,0,0,1.6,4.9,19.876,19.876,0,0,0,12.9,9.1l2-.2a7.987,7.987,0,0,0,2.6-2.1c3.1-5.6,7.1-12.1,12-19.6A118.935,118.935,0,0,0-105-41.1a2.987,2.987,0,0,0,.7-2.7l-.5-2.5-2.5,1a8.027,8.027,0,0,0-3.4,2.9,171.331,171.331,0,0,0-14.8,14.6,88.008,88.008,0,0,1-14.1,12.7,146.805,146.805,0,0,1,.5-23.9,91.029,91.029,0,0,1,5-21.6,17.465,17.465,0,0,0,1.2-8.5,52.749,52.749,0,0,0-10.2-11.4l-2.9-.2a14.706,14.706,0,0,0-7.9,7.8Zm96.7,11.7a82.14,82.14,0,0,0-11.4,8.5h1q-.6.45,3.3-.9a33.767,33.767,0,0,0,4.4-1.6l.6,1-1.6,10.6C-65.9-39.8-71.2-38-76.4-36a12.355,12.355,0,0,1-6.4.8c-.5-.4-2.3-2-5.2-4.5,2.6,4.3,4.4,4.8,5.6,1.4-3,2.2-4.8,3.8-5.3,5.1a2.5,2.5,0,0,0,.3,1.3,22.34,22.34,0,0,0,11.2,8.4,9.141,9.141,0,0,0,5.2.3,32.034,32.034,0,0,0,8.2-3.3l-.4,2.1a8.968,8.968,0,0,0,.1,2.8A38.092,38.092,0,0,0-56.3-6.7a10.826,10.826,0,0,0,6.5,4.6A63.389,63.389,0,0,0-28.2.1a14.835,14.835,0,0,0,8.7-3.5l.8-.4a10.111,10.111,0,0,0-1.9-4.7A19.846,19.846,0,0,0-27-13.7a3.817,3.817,0,0,0-3.3,0,62.011,62.011,0,0,1-20.1,2.5,1.675,1.675,0,0,1-1.8-1.2,4.818,4.818,0,0,0-.7-1.5c-.1-.1-.1-.4-.2-.7a1.087,1.087,0,0,1-.1-.5,18.959,18.959,0,0,1,.2-3l3.7-15.4A80.281,80.281,0,0,1-35.7-38,30.885,30.885,0,0,1-24-38.4a15.714,15.714,0,0,0,4.8.1,2.944,2.944,0,0,0,.9-.3,2.663,2.663,0,0,0,.8-.4,15.635,15.635,0,0,0,1.7-1.2,1.284,1.284,0,0,0,.4-1l1.2-4.5c-2.4,2.3-2.3,4.9.5,7.7-2.4-5.6-4.8-9-7-10.1a7.826,7.826,0,0,0-3.4-.5,214.329,214.329,0,0,0-22.4,3.5l1-3.5a5.284,5.284,0,0,0,1.6,3.9c-2.8-5.4-5.3-9-7.7-10.8a127.164,127.164,0,0,1,16.3-3.3,6.458,6.458,0,0,1,3.1.2,3.3,3.3,0,0,0,2.4,0,3.641,3.641,0,0,0,1.7-2,4.166,4.166,0,0,0-.5-3.9,29.519,29.519,0,0,0-6.9-7.2,4.964,4.964,0,0,0-3.1-.9,112.031,112.031,0,0,0-12.3,1.3,25.167,25.167,0,0,1-14.5-2,.92.92,0,0,0-1.2-.1c-1.1,0-3.1,1.3-6.3,4,3.9-1.2,4.5-3.4,1.9-6.5,1.1,3.7,1.9,6.1,2.3,7A49.846,49.846,0,0,0-56.8-59.1Zm90,.5c-3.1,4.3-7.4,10-13,16.9,4-1.9,5.7-3.1,5.2-3.7-.6-.6,0-1.9,1.7-3.8,2.8-.4,6.6-1.9,11.6-4.4a3.346,3.346,0,0,1,2.3-.6l3.9.2a6.167,6.167,0,0,0,3.5-.4,19.621,19.621,0,0,0,4.8-3.5,4.079,4.079,0,0,0,.7-3.8,19.586,19.586,0,0,0-2.6-5.5,15.171,15.171,0,0,0-4.8-3.3,52.911,52.911,0,0,0-15.4-2.6,2.7,2.7,0,0,0-2.2.4l-1.6.6a2.271,2.271,0,0,0-.9,1.8,10.616,10.616,0,0,0,.9,3.8A31.36,31.36,0,0,0,33.2-58.6ZM23.7-20.1l-1.6-2.5a1.561,1.561,0,0,0-1.3-.7,2.3,2.3,0,0,0-1.4.4,18.472,18.472,0,0,0-4.5,6.3,6.127,6.127,0,0,0,.1,3.8A20.208,20.208,0,0,0,27.7-1.6a7.772,7.772,0,0,0,5-.1A166.345,166.345,0,0,0,65.2-20.9,52.821,52.821,0,0,0,75.9-31.3a75.7,75.7,0,0,0,7.6-12.8,123.067,123.067,0,0,1,6.9-13.4c1.6,0,1.7-.6.4-1.9a1.011,1.011,0,0,0-1.1-.8l-1.6-.4a2.378,2.378,0,0,0-2.6.6c-2.8,3.2-4.9,5.6-6.3,7.3a55.855,55.855,0,0,1-9.3,9.5A117.229,117.229,0,0,1,28.8-20.9,18.074,18.074,0,0,1,23.7-20.1Zm118.6-2.4-.6,8.7c-.2.1-2.5.6-6.9,1.7a51.28,51.28,0,0,0-6.3,1.7C132.1-13.9,136.7-17.9,142.3-22.5ZM124.8-73.6a2.643,2.643,0,0,0-2.7.9,34.059,34.059,0,0,0-3.8,4.7c-.6.7-.7,1.2-.2,1.7a2.292,2.292,0,0,0,1.5,1.2c4.8,1.7,9.4,3.2,14,4.4a11.155,11.155,0,0,0,6.8-.3,11.919,11.919,0,0,1,2.4,6.4,24.047,24.047,0,0,1,.5,7.9c-8.9,2.9-17.8,6.3-26.7,10.1a2.973,2.973,0,0,0,.8,2,3.384,3.384,0,0,0,2.3,1.5,19.969,19.969,0,0,0,2.6.5,71.612,71.612,0,0,0,20.4-1.3l-.2,4A143.992,143.992,0,0,0,119.8-8.4a33.787,33.787,0,0,0-6.8,2,4.686,4.686,0,0,1-2-.1,11.617,11.617,0,0,0-4.4,4.4,2.775,2.775,0,0,0,.6,3.1,25.421,25.421,0,0,0,9.7,4.1,4.885,4.885,0,0,0,3.9-.4,104.879,104.879,0,0,1,27-6.8A91.81,91.81,0,0,1,186.2.1,5.36,5.36,0,0,0,189-.1,12.518,12.518,0,0,0,193.2-5a1.5,1.5,0,0,0-.1-1.7A43.394,43.394,0,0,0,183-16.2a5.356,5.356,0,0,0-4.5-.5,10.942,10.942,0,0,1-5,.6c-8,.3-14.7.7-20.3,1.3.7-4.4,1.4-10,1.9-16.7a27.1,27.1,0,0,1,9.3-6.2,26.133,26.133,0,0,0,6-.9,2.365,2.365,0,0,0,1.3-1.1,5.034,5.034,0,0,0,.5-1.6,2.212,2.212,0,0,0-.3-2.7,29.121,29.121,0,0,0-5.3-7.4,3.153,3.153,0,0,0-1.7-1.1l-1.2-.2a8.865,8.865,0,0,0-3,.6l-3.5,1.4a38.2,38.2,0,0,1,1.6-7.3,2.246,2.246,0,0,0-.3-2.2,11.046,11.046,0,0,0-2.7-2.9,103.143,103.143,0,0,0,13.5-2.3,23.161,23.161,0,0,1,9.8-.3,1.774,1.774,0,0,0,1.7-.5l.4-.5a2.472,2.472,0,0,0,.4-2.1l-.1-1.8a4.712,4.712,0,0,0-1.4-3,47.087,47.087,0,0,0-9.3-7.5,2.531,2.531,0,0,0-2.5-.2A86.568,86.568,0,0,1,124.8-73.6Zm98.1,49.7a104.763,104.763,0,0,1,25.8-9.4,49.92,49.92,0,0,1-6.6,23.2,48.931,48.931,0,0,0-11.8-7.6A18.819,18.819,0,0,1,222.9-23.9Zm23.6-25a7.568,7.568,0,0,1,1.3,2L248-45a267.452,267.452,0,0,0-28,5.8,18.883,18.883,0,0,1-8.2.3,8.353,8.353,0,0,1-3.5-1.3,14.5,14.5,0,0,0-4.7,6.9c-.7,1.9-.2,3.4,1.5,4.8a32.8,32.8,0,0,0,10.5,5.4,6.643,6.643,0,0,0,4.4.3A185.211,185.211,0,0,1,236.6-2.4,59.923,59.923,0,0,0,246,7.1a12.649,12.649,0,0,0,6.7,2.1,7.563,7.563,0,0,0,6.7-5,85.833,85.833,0,0,0,4.4-39.6c3.1-.3,6.2-.5,9.3-.5a49.1,49.1,0,0,1,17.1,3.1,2.937,2.937,0,0,0,3.3-.5,10.9,10.9,0,0,0,2.4-2.4,2.59,2.59,0,0,0,.1-3.4,27.866,27.866,0,0,0-6.9-8.6,6.5,6.5,0,0,0-6.5-1.6,40.764,40.764,0,0,1-9.7,1.5c-3.4.2-7.1.5-11.1,1a5.7,5.7,0,0,0-2.3-3,36.66,36.66,0,0,0-7.4-4.5,55.994,55.994,0,0,1,11.2-8.5,54.291,54.291,0,0,0,11-8.2,1.868,1.868,0,0,0,.3-2.6,51.926,51.926,0,0,0-9.1-10.6,4.168,4.168,0,0,0-4.6-1,85.385,85.385,0,0,1-24.1,5.5,22.519,22.519,0,0,0-7.6,2,3.433,3.433,0,0,0-2.4,1.8,22.411,22.411,0,0,0-4.4,8.7c0,1.1.5,1.6,1.7,1.4a31.3,31.3,0,0,1,5.8.5,6.432,6.432,0,0,0,5.1-.6,129.952,129.952,0,0,1,19.7-7.6,99.131,99.131,0,0,0-14.4,18.4c-.3.9-.3,1.5,0,1.9a1.482,1.482,0,0,0,1.1,1.2A15.513,15.513,0,0,1,246.5-48.9Zm-469.9,87a3.138,3.138,0,0,0-3.5.6,16.775,16.775,0,0,0-4.8,7.9,8.027,8.027,0,0,0,.1,5.9l2.2,5.2-7.3,18a9.663,9.663,0,0,1-3.1,4.5,5.793,5.793,0,0,1-3.1,1.2,2.1,2.1,0,0,0-1.9,1.3,12.3,12.3,0,0,0-1.5,4.3v.7l1.2,1a173.928,173.928,0,0,1,15.9-8.3,30.751,30.751,0,0,0,13.3-12.7l7.8-13.6a3.783,3.783,0,0,0-.3-4.1A40.288,40.288,0,0,0-223.4,38.1Zm28.7,4.4a61.682,61.682,0,0,0,11.4,8.7A87.28,87.28,0,0,0-198,60.1a25.253,25.253,0,0,0-3.2,2.8,16.827,16.827,0,0,0-4.9,12.2,90.666,90.666,0,0,1-21.8,28l-1.1-.1a2.079,2.079,0,0,0-2.2,1.1,34.8,34.8,0,0,0-3.2,14.5,7.837,7.837,0,0,0,1.3,3,10.777,10.777,0,0,0,5.9,3.2,7.86,7.86,0,0,0,6.6-1.2,148.578,148.578,0,0,1,34.9-14.7,90.64,90.64,0,0,1,8.1,12.7,14.454,14.454,0,0,0,8.4,6.9,3.858,3.858,0,0,0,2.8-.5,4.127,4.127,0,0,1,2.8-1.2,2.791,2.791,0,0,0,2.7-2.1,18.817,18.817,0,0,0,0-11.5,15.55,15.55,0,0,0-5.1-7.9,122.717,122.717,0,0,0-18.4-14.1,3.08,3.08,0,0,0-4.4,1.2l-2.1,4.5a120.276,120.276,0,0,0-16.6,4.4A171.009,171.009,0,0,1-195,83a8.115,8.115,0,0,0,1.7-5.6,63.384,63.384,0,0,0-2.2-12.1,17.2,17.2,0,0,0-1.2-2.4,55.674,55.674,0,0,1,14.3-7.5,11.239,11.239,0,0,1,6.3-.1L-162,59a3.445,3.445,0,0,0,3.6-1.2,7.9,7.9,0,0,1,2.9-1.7c1.4-.3,1.9-1,1.6-2.3a15.053,15.053,0,0,0-3.4-8.2,16.374,16.374,0,0,0-9.6-5.6,114.731,114.731,0,0,1-16.5-4.3,5.98,5.98,0,0,0-5.5.5l-5.1,3.3a2.463,2.463,0,0,0-.9,1.9Zm113.8-1.2A4.188,4.188,0,0,0-80,44a40.2,40.2,0,0,0,14.1,9.8,3.158,3.158,0,0,0,3.5-.3,3.366,3.366,0,0,0,1.7-2.3l.5-3.5a2.3,2.3,0,0,0-.5-2.8,42.362,42.362,0,0,0-8-6.1,5.244,5.244,0,0,0-3-.4A76.362,76.362,0,0,0-80.9,41.3Zm-55.6,24.2a3.187,3.187,0,0,0,.6,1.7,27.63,27.63,0,0,0,10.5,4.7,21.623,21.623,0,0,0,6.7.2l17.3-3.6a86.5,86.5,0,0,1,6,18,124.933,124.933,0,0,1-19,12.6,34.479,34.479,0,0,0,3.3-6.9l-1.1-3a22.236,22.236,0,0,0,10-4.6,2.463,2.463,0,0,0,.2-2.2,18.074,18.074,0,0,0-7.1-6.9,4.032,4.032,0,0,0-3-.3l-18.1,5.6a14,14,0,0,1-3.6.7l-1.4,2.6a67.686,67.686,0,0,0,5.9,5.7,4.451,4.451,0,0,0,4.1,1.2l1.6-.5a33.58,33.58,0,0,1,.1,3.8,125.389,125.389,0,0,1-8,13c-.2,0-.3-.1-.2-.2,0-.1-.2-.1-.7,0-.5.2-1.1.4-1.6.6a15.425,15.425,0,0,1-1.7.5q-1.05.3,0-.6c.5-.5,1-.6,1.4-.3s-1.9.5-7.1.5l-1.8.9c-.6-.2-1.2.1-1.7.9L-146,112a1.992,1.992,0,0,0-.1,2.7,30.625,30.625,0,0,0,7.4,7.1c1.3,1.2,2.6,1.4,4,.3a93.472,93.472,0,0,1,27.2-15.2,12.539,12.539,0,0,0,6.4-4.7,88.325,88.325,0,0,1,7.8-10.1c5.2,14.5,14.4,26.2,27.4,35.2a5.58,5.58,0,0,0,6.6.5,9.287,9.287,0,0,0,5.4-7.3,19.629,19.629,0,0,0-.4-7.3,217.28,217.28,0,0,0-9.1-24.6c.3,4.4.4,8.2.4,11.1a31.349,31.349,0,0,1-1.6,13.1A102.182,102.182,0,0,1-89.8,67.2l13.9-1.5a4.921,4.921,0,0,0,3.1-1.6l1.1-1a2.184,2.184,0,0,0,.7-2.5,16.575,16.575,0,0,0-11.5-9.9,3.479,3.479,0,0,0-3,.1,29.855,29.855,0,0,1-6.6,1.4,17.869,17.869,0,0,0-.4-5.9,3.817,3.817,0,0,0-1.9-2.8,110.7,110.7,0,0,0-17.8-7.8,2.3,2.3,0,0,0-1.4-.4,7.174,7.174,0,0,0-1.1.7,22.372,22.372,0,0,0-3.5,5.5,2.889,2.889,0,0,0,.6,3.3,82.8,82.8,0,0,1,9.6,12c-7,1.8-13.9,3.1-20.6,4.2a7.743,7.743,0,0,1-5-.2A9.337,9.337,0,0,0-136.5,65.5ZM12,67.3A32.371,32.371,0,0,0,2,58.1a74.492,74.492,0,0,1,13.8-4.3,13.416,13.416,0,0,1,6.3,0c3,.9,4.8,1.6,5.4,1.8Zm1,8.3,25.7-7.1a1.889,1.889,0,0,0,1.3-.7,7.56,7.56,0,0,0,2.3-4.4,6.813,6.813,0,0,0-.4-3.8,28.658,28.658,0,0,0-6.2-10.1,3.561,3.561,0,0,0-1.8-1.4,17.355,17.355,0,0,0-4.8-2.3,19.471,19.471,0,0,0-8.9-1.5,228.051,228.051,0,0,0-29.4,4c-5.5,1.3-10.7,2.7-15.7,4.2a40.78,40.78,0,0,1-14.8,1.3,6.146,6.146,0,0,0-2.2,1.7q-1.5.9-.3,2.1a19.388,19.388,0,0,0,11,9.3,18.3,18.3,0,0,0,9.8.8A53.735,53.735,0,0,0-8.8,63.1a2.212,2.212,0,0,0,.6,1.7A30.706,30.706,0,0,0-3.7,71a235.825,235.825,0,0,1-15.8,44.3,3.094,3.094,0,0,0-.2,2.8l2.9,7.4c3.2-5.5,6.6-9.7,10.3-12.5A135.047,135.047,0,0,0,13,75.6ZM135.8,43.4l-.1,1.6a2.71,2.71,0,0,1-1.8,2.1,1.183,1.183,0,0,1-1-.1l-1.5-1.1c-.1-.1-.1-.1-.1-.2a.6.6,0,0,1,.1-.4c.6-.5,1.5-1.2,2.6-2.1a1.147,1.147,0,0,1,1-.1Zm-10.5-1a1.8,1.8,0,0,0-.4,1.6l.2,3.3a3.656,3.656,0,0,0,.9,2.5,15.816,15.816,0,0,0,4.4,4.2,5.744,5.744,0,0,0,3.7,1,10.67,10.67,0,0,0,7.4-4.4,5.847,5.847,0,0,0,1-4.7,10.271,10.271,0,0,0-6.4-8.5,4.733,4.733,0,0,0-4-.4A9.756,9.756,0,0,0,125.3,42.4Zm-13.5,16a218.511,218.511,0,0,1-26,48.8,4.937,4.937,0,0,1-4,2.3l-3.1.1a2.06,2.06,0,0,0-1.7,2.2,14.649,14.649,0,0,0,1.8,6.3l3,.4a5.985,5.985,0,0,0,4.4-1.1,170.131,170.131,0,0,0,41.1-48.7l5.5-5.1a1.843,1.843,0,0,0,.4-3,44.519,44.519,0,0,0-10.9-11.9l-5.6-1.8a367.121,367.121,0,0,0-47,8.4,9.041,9.041,0,0,1-5.1-.8l-4.3-1.7-1.7,1.6a3.31,3.31,0,0,0-.2,3.2A32.306,32.306,0,0,0,68.5,71.7a5.585,5.585,0,0,0,4.6.5A376.778,376.778,0,0,1,111.8,58.4Zm80.4-11.5a11.15,11.15,0,0,0-1.8,2.2,94.454,94.454,0,0,0-10-8.2,3.535,3.535,0,0,0-3.2-.6l-1,.4a2.265,2.265,0,0,0-1.1,1.9,14.884,14.884,0,0,0,.7,5.5,7.822,7.822,0,0,1,.6,3.5A156.1,156.1,0,0,1,174,73.5a6.3,6.3,0,0,1-1,3.1,6.467,6.467,0,0,0,0,3.9,22.7,22.7,0,0,0,11,12.8,3.154,3.154,0,0,0,3.9,0l1-.7a2.739,2.739,0,0,0,1.4-2.5,196.441,196.441,0,0,1,4.2-41.7Zm13-2.9a2.976,2.976,0,0,0-.5,1.5,1.816,1.816,0,0,0,.8,1.6l1.9,1.7a2.808,2.808,0,0,1,1.1,2.5,226.5,226.5,0,0,1-3.7,62.4,23.8,23.8,0,0,1-1.5,4.9,4.4,4.4,0,0,0,0,3.2l.8,1.5a1,1,0,0,0,1.1,1.1,1.248,1.248,0,0,0,1.6-.3A32.922,32.922,0,0,0,219,108.8a73.194,73.194,0,0,0,4.9-20l3.3-35a17.064,17.064,0,0,1,.5-3,4.163,4.163,0,0,0,.3-3.1,3.425,3.425,0,0,0-2-2.1c-4.8-2.2-9.6-4.1-14.2-5.8a3.345,3.345,0,0,0-4,1Z" transform="translate(292.334 85.496)" fill="#fff"/>
</svg>
