<svg xmlns="http://www.w3.org/2000/svg" width="581.066" height="152.142" viewBox="0 0 581.066 152.142">
  <g id="グループ_898" data-name="グループ 898" transform="translate(-669.348 -2189.629)">
    <g id="グループ_894" data-name="グループ 894" transform="translate(0 326)">
      <g id="グループ_891" data-name="グループ 891" transform="translate(803.813 1981.93) rotate(159)">
        <path id="パス_978" data-name="パス 978" d="M85.4,24.451,59.23,105.606a1.3,1.3,0,0,1-1.514.869L8.957,95.732a1.531,1.531,0,0,1-1.009-.751L0,80.69,36.678,15.48,28.823,13.1A1.162,1.162,0,0,1,27.7,12.007l-.609-9.889a2,2,0,0,1,2.232-2.1L86.97,7.044a3.76,3.76,0,0,1,3.165,2.718l4.371,15.608a1.037,1.037,0,0,1-1.319,1.265l-7.364-2.4A.332.332,0,0,0,85.4,24.451Z" transform="translate(0 18.743)" fill="#d54a46" stroke="#d54a46" stroke-linecap="round" stroke-miterlimit="10" stroke-width="2"/>
        <line id="線_3" data-name="線 3" x1="4.781" y1="15.261" transform="translate(80.622 27.933)" fill="none" stroke="#fff" stroke-linecap="round" stroke-miterlimit="10" stroke-width="2"/>
        <line id="線_4" data-name="線 4" x1="7.967" y1="16.733" transform="translate(60.037 79.654)" fill="none" stroke="#fff" stroke-linecap="round" stroke-miterlimit="10" stroke-width="2"/>
        <line id="線_5" data-name="線 5" x1="7.967" y1="16.733" transform="translate(55.575 92.718)" fill="none" stroke="#fff" stroke-linecap="round" stroke-miterlimit="10" stroke-width="2"/>
        <line id="線_6" data-name="線 6" x1="7.967" y1="16.733" transform="translate(63.744 67.01)" fill="none" stroke="#fff" stroke-linecap="round" stroke-miterlimit="10" stroke-width="2"/>
        <line id="線_7" data-name="線 7" x1="7.967" y1="16.733" transform="translate(69.137 53.429)" fill="none" stroke="#fff" stroke-linecap="round" stroke-miterlimit="10" stroke-width="2"/>
        <line id="線_8" data-name="線 8" x1="7.967" y1="16.733" transform="translate(71.486 40.354)" fill="none" stroke="#fff" stroke-linecap="round" stroke-miterlimit="10" stroke-width="2"/>
        <line id="線_9" data-name="線 9" x1="7.967" y1="16.733" transform="translate(74.772 33.966)" fill="none" stroke="#fff" stroke-linecap="round" stroke-miterlimit="10" stroke-width="2"/>
        <line id="線_10" data-name="線 10" x1="9.617" y1="15.842" transform="translate(48.787 109.366)" fill="none" stroke="#fff" stroke-linecap="round" stroke-miterlimit="10" stroke-width="2"/>
        <line id="線_11" data-name="線 11" x1="9.617" y1="15.842" transform="translate(38.158 106.778)" fill="none" stroke="#fff" stroke-linecap="round" stroke-miterlimit="10" stroke-width="2"/>
        <line id="線_12" data-name="線 12" x1="9.617" y1="15.842" transform="translate(26.555 104.312)" fill="none" stroke="#fff" stroke-linecap="round" stroke-miterlimit="10" stroke-width="2"/>
        <line id="線_13" data-name="線 13" x1="9.617" y1="15.842" transform="translate(15.002 101.803)" fill="none" stroke="#fff" stroke-linecap="round" stroke-miterlimit="10" stroke-width="2"/>
        <line id="線_14" data-name="線 14" x1="9.617" y1="15.842" transform="translate(5.369 99.465)" fill="none" stroke="#fff" stroke-linecap="round" stroke-miterlimit="10" stroke-width="2"/>
        <path id="パス_979" data-name="パス 979" d="M70.49.046,28.375,17.76a.711.711,0,0,0,.035,1.326l8.159,2.926a.583.583,0,0,1,.328.8L.059,98.79a.583.583,0,0,0,.381.819L47.69,111.594a1.079,1.079,0,0,0,1.277-.67L79.734,28.306a.582.582,0,0,1,.635-.372L89.187,29.3a1.093,1.093,0,0,0,1.064-1.706L71.194.25A.582.582,0,0,0,70.49.046Z" transform="translate(0.254 0)" fill="#fff" stroke="#d54a46" stroke-linecap="round" stroke-miterlimit="10" stroke-width="2"/>
      </g>
      <g id="グループ_892" data-name="グループ 892" transform="translate(1026.576 1981.93) rotate(159)">
        <path id="パス_978-2" data-name="パス 978" d="M85.4,24.451,59.23,105.606a1.3,1.3,0,0,1-1.514.869L8.957,95.732a1.531,1.531,0,0,1-1.009-.751L0,80.69,36.678,15.48,28.823,13.1A1.162,1.162,0,0,1,27.7,12.007l-.609-9.889a2,2,0,0,1,2.232-2.1L86.97,7.044a3.76,3.76,0,0,1,3.165,2.718l4.371,15.608a1.037,1.037,0,0,1-1.319,1.265l-7.364-2.4A.332.332,0,0,0,85.4,24.451Z" transform="translate(0 18.743)" fill="#d54a46" stroke="#d54a46" stroke-linecap="round" stroke-miterlimit="10" stroke-width="2"/>
        <line id="線_3-2" data-name="線 3" x1="4.781" y1="15.261" transform="translate(80.622 27.933)" fill="none" stroke="#fff" stroke-linecap="round" stroke-miterlimit="10" stroke-width="2"/>
        <line id="線_4-2" data-name="線 4" x1="7.967" y1="16.733" transform="translate(60.037 79.654)" fill="none" stroke="#fff" stroke-linecap="round" stroke-miterlimit="10" stroke-width="2"/>
        <line id="線_5-2" data-name="線 5" x1="7.967" y1="16.733" transform="translate(55.575 92.718)" fill="none" stroke="#fff" stroke-linecap="round" stroke-miterlimit="10" stroke-width="2"/>
        <line id="線_6-2" data-name="線 6" x1="7.967" y1="16.733" transform="translate(63.744 67.01)" fill="none" stroke="#fff" stroke-linecap="round" stroke-miterlimit="10" stroke-width="2"/>
        <line id="線_7-2" data-name="線 7" x1="7.967" y1="16.733" transform="translate(69.137 53.429)" fill="none" stroke="#fff" stroke-linecap="round" stroke-miterlimit="10" stroke-width="2"/>
        <line id="線_8-2" data-name="線 8" x1="7.967" y1="16.733" transform="translate(71.486 40.354)" fill="none" stroke="#fff" stroke-linecap="round" stroke-miterlimit="10" stroke-width="2"/>
        <line id="線_9-2" data-name="線 9" x1="7.967" y1="16.733" transform="translate(74.772 33.966)" fill="none" stroke="#fff" stroke-linecap="round" stroke-miterlimit="10" stroke-width="2"/>
        <line id="線_10-2" data-name="線 10" x1="9.617" y1="15.842" transform="translate(48.787 109.366)" fill="none" stroke="#fff" stroke-linecap="round" stroke-miterlimit="10" stroke-width="2"/>
        <line id="線_11-2" data-name="線 11" x1="9.617" y1="15.842" transform="translate(38.158 106.778)" fill="none" stroke="#fff" stroke-linecap="round" stroke-miterlimit="10" stroke-width="2"/>
        <line id="線_12-2" data-name="線 12" x1="9.617" y1="15.842" transform="translate(26.555 104.312)" fill="none" stroke="#fff" stroke-linecap="round" stroke-miterlimit="10" stroke-width="2"/>
        <line id="線_13-2" data-name="線 13" x1="9.617" y1="15.842" transform="translate(15.002 101.803)" fill="none" stroke="#fff" stroke-linecap="round" stroke-miterlimit="10" stroke-width="2"/>
        <line id="線_14-2" data-name="線 14" x1="9.617" y1="15.842" transform="translate(5.369 99.465)" fill="none" stroke="#fff" stroke-linecap="round" stroke-miterlimit="10" stroke-width="2"/>
        <path id="パス_979-2" data-name="パス 979" d="M70.49.046,28.375,17.76a.711.711,0,0,0,.035,1.326l8.159,2.926a.583.583,0,0,1,.328.8L.059,98.79a.583.583,0,0,0,.381.819L47.69,111.594a1.079,1.079,0,0,0,1.277-.67L79.734,28.306a.582.582,0,0,1,.635-.372L89.187,29.3a1.093,1.093,0,0,0,1.064-1.706L71.194.25A.582.582,0,0,0,70.49.046Z" transform="translate(0.254 0)" fill="#fff" stroke="#d54a46" stroke-linecap="round" stroke-miterlimit="10" stroke-width="2"/>
      </g>
      <g id="グループ_893" data-name="グループ 893" transform="translate(1249.338 1981.93) rotate(159)">
        <path id="パス_978-3" data-name="パス 978" d="M85.4,24.451,59.23,105.606a1.3,1.3,0,0,1-1.514.869L8.957,95.732a1.531,1.531,0,0,1-1.009-.751L0,80.69,36.678,15.48,28.823,13.1A1.162,1.162,0,0,1,27.7,12.007l-.609-9.889a2,2,0,0,1,2.232-2.1L86.97,7.044a3.76,3.76,0,0,1,3.165,2.718l4.371,15.608a1.037,1.037,0,0,1-1.319,1.265l-7.364-2.4A.332.332,0,0,0,85.4,24.451Z" transform="translate(0 18.743)" fill="#d54a46" stroke="#d54a46" stroke-linecap="round" stroke-miterlimit="10" stroke-width="2"/>
        <line id="線_3-3" data-name="線 3" x1="4.781" y1="15.261" transform="translate(80.622 27.933)" fill="none" stroke="#fff" stroke-linecap="round" stroke-miterlimit="10" stroke-width="2"/>
        <line id="線_4-3" data-name="線 4" x1="7.967" y1="16.733" transform="translate(60.037 79.654)" fill="none" stroke="#fff" stroke-linecap="round" stroke-miterlimit="10" stroke-width="2"/>
        <line id="線_5-3" data-name="線 5" x1="7.967" y1="16.733" transform="translate(55.575 92.718)" fill="none" stroke="#fff" stroke-linecap="round" stroke-miterlimit="10" stroke-width="2"/>
        <line id="線_6-3" data-name="線 6" x1="7.967" y1="16.733" transform="translate(63.744 67.01)" fill="none" stroke="#fff" stroke-linecap="round" stroke-miterlimit="10" stroke-width="2"/>
        <line id="線_7-3" data-name="線 7" x1="7.967" y1="16.733" transform="translate(69.137 53.429)" fill="none" stroke="#fff" stroke-linecap="round" stroke-miterlimit="10" stroke-width="2"/>
        <line id="線_8-3" data-name="線 8" x1="7.967" y1="16.733" transform="translate(71.486 40.354)" fill="none" stroke="#fff" stroke-linecap="round" stroke-miterlimit="10" stroke-width="2"/>
        <line id="線_9-3" data-name="線 9" x1="7.967" y1="16.733" transform="translate(74.772 33.966)" fill="none" stroke="#fff" stroke-linecap="round" stroke-miterlimit="10" stroke-width="2"/>
        <line id="線_10-3" data-name="線 10" x1="9.617" y1="15.842" transform="translate(48.787 109.366)" fill="none" stroke="#fff" stroke-linecap="round" stroke-miterlimit="10" stroke-width="2"/>
        <line id="線_11-3" data-name="線 11" x1="9.617" y1="15.842" transform="translate(38.158 106.778)" fill="none" stroke="#fff" stroke-linecap="round" stroke-miterlimit="10" stroke-width="2"/>
        <line id="線_12-3" data-name="線 12" x1="9.617" y1="15.842" transform="translate(26.555 104.312)" fill="none" stroke="#fff" stroke-linecap="round" stroke-miterlimit="10" stroke-width="2"/>
        <line id="線_13-3" data-name="線 13" x1="9.617" y1="15.842" transform="translate(15.002 101.803)" fill="none" stroke="#fff" stroke-linecap="round" stroke-miterlimit="10" stroke-width="2"/>
        <line id="線_14-3" data-name="線 14" x1="9.617" y1="15.842" transform="translate(5.369 99.465)" fill="none" stroke="#fff" stroke-linecap="round" stroke-miterlimit="10" stroke-width="2"/>
        <path id="パス_979-3" data-name="パス 979" d="M70.49.046,28.375,17.76a.711.711,0,0,0,.035,1.326l8.159,2.926a.583.583,0,0,1,.328.8L.059,98.79a.583.583,0,0,0,.381.819L47.69,111.594a1.079,1.079,0,0,0,1.277-.67L79.734,28.306a.582.582,0,0,1,.635-.372L89.187,29.3a1.093,1.093,0,0,0,1.064-1.706L71.194.25A.582.582,0,0,0,70.49.046Z" transform="translate(0.254 0)" fill="#fff" stroke="#d54a46" stroke-linecap="round" stroke-miterlimit="10" stroke-width="2"/>
      </g>
    </g>
    <g id="グループ_895" data-name="グループ 895" transform="translate(118 326)">
      <g id="グループ_891-2" data-name="グループ 891" transform="translate(803.813 1981.93) rotate(159)">
        <path id="パス_978-4" data-name="パス 978" d="M85.4,24.451,59.23,105.606a1.3,1.3,0,0,1-1.514.869L8.957,95.732a1.531,1.531,0,0,1-1.009-.751L0,80.69,36.678,15.48,28.823,13.1A1.162,1.162,0,0,1,27.7,12.007l-.609-9.889a2,2,0,0,1,2.232-2.1L86.97,7.044a3.76,3.76,0,0,1,3.165,2.718l4.371,15.608a1.037,1.037,0,0,1-1.319,1.265l-7.364-2.4A.332.332,0,0,0,85.4,24.451Z" transform="translate(0 18.743)" fill="#d54a46" stroke="#d54a46" stroke-linecap="round" stroke-miterlimit="10" stroke-width="2"/>
        <line id="線_3-4" data-name="線 3" x1="4.781" y1="15.261" transform="translate(80.622 27.933)" fill="none" stroke="#fff" stroke-linecap="round" stroke-miterlimit="10" stroke-width="2"/>
        <line id="線_4-4" data-name="線 4" x1="7.967" y1="16.733" transform="translate(60.037 79.654)" fill="none" stroke="#fff" stroke-linecap="round" stroke-miterlimit="10" stroke-width="2"/>
        <line id="線_5-4" data-name="線 5" x1="7.967" y1="16.733" transform="translate(55.575 92.718)" fill="none" stroke="#fff" stroke-linecap="round" stroke-miterlimit="10" stroke-width="2"/>
        <line id="線_6-4" data-name="線 6" x1="7.967" y1="16.733" transform="translate(63.744 67.01)" fill="none" stroke="#fff" stroke-linecap="round" stroke-miterlimit="10" stroke-width="2"/>
        <line id="線_7-4" data-name="線 7" x1="7.967" y1="16.733" transform="translate(69.137 53.429)" fill="none" stroke="#fff" stroke-linecap="round" stroke-miterlimit="10" stroke-width="2"/>
        <line id="線_8-4" data-name="線 8" x1="7.967" y1="16.733" transform="translate(71.486 40.354)" fill="none" stroke="#fff" stroke-linecap="round" stroke-miterlimit="10" stroke-width="2"/>
        <line id="線_9-4" data-name="線 9" x1="7.967" y1="16.733" transform="translate(74.772 33.966)" fill="none" stroke="#fff" stroke-linecap="round" stroke-miterlimit="10" stroke-width="2"/>
        <line id="線_10-4" data-name="線 10" x1="9.617" y1="15.842" transform="translate(48.787 109.366)" fill="none" stroke="#fff" stroke-linecap="round" stroke-miterlimit="10" stroke-width="2"/>
        <line id="線_11-4" data-name="線 11" x1="9.617" y1="15.842" transform="translate(38.158 106.778)" fill="none" stroke="#fff" stroke-linecap="round" stroke-miterlimit="10" stroke-width="2"/>
        <line id="線_12-4" data-name="線 12" x1="9.617" y1="15.842" transform="translate(26.555 104.312)" fill="none" stroke="#fff" stroke-linecap="round" stroke-miterlimit="10" stroke-width="2"/>
        <line id="線_13-4" data-name="線 13" x1="9.617" y1="15.842" transform="translate(15.002 101.803)" fill="none" stroke="#fff" stroke-linecap="round" stroke-miterlimit="10" stroke-width="2"/>
        <line id="線_14-4" data-name="線 14" x1="9.617" y1="15.842" transform="translate(5.369 99.465)" fill="none" stroke="#fff" stroke-linecap="round" stroke-miterlimit="10" stroke-width="2"/>
        <path id="パス_979-4" data-name="パス 979" d="M70.49.046,28.375,17.76a.711.711,0,0,0,.035,1.326l8.159,2.926a.583.583,0,0,1,.328.8L.059,98.79a.583.583,0,0,0,.381.819L47.69,111.594a1.079,1.079,0,0,0,1.277-.67L79.734,28.306a.582.582,0,0,1,.635-.372L89.187,29.3a1.093,1.093,0,0,0,1.064-1.706L71.194.25A.582.582,0,0,0,70.49.046Z" transform="translate(0.254 0)" fill="#fff" stroke="#d54a46" stroke-linecap="round" stroke-miterlimit="10" stroke-width="2"/>
      </g>
      <g id="グループ_892-2" data-name="グループ 892" transform="translate(1026.576 1981.93) rotate(159)">
        <path id="パス_978-5" data-name="パス 978" d="M85.4,24.451,59.23,105.606a1.3,1.3,0,0,1-1.514.869L8.957,95.732a1.531,1.531,0,0,1-1.009-.751L0,80.69,36.678,15.48,28.823,13.1A1.162,1.162,0,0,1,27.7,12.007l-.609-9.889a2,2,0,0,1,2.232-2.1L86.97,7.044a3.76,3.76,0,0,1,3.165,2.718l4.371,15.608a1.037,1.037,0,0,1-1.319,1.265l-7.364-2.4A.332.332,0,0,0,85.4,24.451Z" transform="translate(0 18.743)" fill="#d54a46" stroke="#d54a46" stroke-linecap="round" stroke-miterlimit="10" stroke-width="2"/>
        <line id="線_3-5" data-name="線 3" x1="4.781" y1="15.261" transform="translate(80.622 27.933)" fill="none" stroke="#fff" stroke-linecap="round" stroke-miterlimit="10" stroke-width="2"/>
        <line id="線_4-5" data-name="線 4" x1="7.967" y1="16.733" transform="translate(60.037 79.654)" fill="none" stroke="#fff" stroke-linecap="round" stroke-miterlimit="10" stroke-width="2"/>
        <line id="線_5-5" data-name="線 5" x1="7.967" y1="16.733" transform="translate(55.575 92.718)" fill="none" stroke="#fff" stroke-linecap="round" stroke-miterlimit="10" stroke-width="2"/>
        <line id="線_6-5" data-name="線 6" x1="7.967" y1="16.733" transform="translate(63.744 67.01)" fill="none" stroke="#fff" stroke-linecap="round" stroke-miterlimit="10" stroke-width="2"/>
        <line id="線_7-5" data-name="線 7" x1="7.967" y1="16.733" transform="translate(69.137 53.429)" fill="none" stroke="#fff" stroke-linecap="round" stroke-miterlimit="10" stroke-width="2"/>
        <line id="線_8-5" data-name="線 8" x1="7.967" y1="16.733" transform="translate(71.486 40.354)" fill="none" stroke="#fff" stroke-linecap="round" stroke-miterlimit="10" stroke-width="2"/>
        <line id="線_9-5" data-name="線 9" x1="7.967" y1="16.733" transform="translate(74.772 33.966)" fill="none" stroke="#fff" stroke-linecap="round" stroke-miterlimit="10" stroke-width="2"/>
        <line id="線_10-5" data-name="線 10" x1="9.617" y1="15.842" transform="translate(48.787 109.366)" fill="none" stroke="#fff" stroke-linecap="round" stroke-miterlimit="10" stroke-width="2"/>
        <line id="線_11-5" data-name="線 11" x1="9.617" y1="15.842" transform="translate(38.158 106.778)" fill="none" stroke="#fff" stroke-linecap="round" stroke-miterlimit="10" stroke-width="2"/>
        <line id="線_12-5" data-name="線 12" x1="9.617" y1="15.842" transform="translate(26.555 104.312)" fill="none" stroke="#fff" stroke-linecap="round" stroke-miterlimit="10" stroke-width="2"/>
        <line id="線_13-5" data-name="線 13" x1="9.617" y1="15.842" transform="translate(15.002 101.803)" fill="none" stroke="#fff" stroke-linecap="round" stroke-miterlimit="10" stroke-width="2"/>
        <line id="線_14-5" data-name="線 14" x1="9.617" y1="15.842" transform="translate(5.369 99.465)" fill="none" stroke="#fff" stroke-linecap="round" stroke-miterlimit="10" stroke-width="2"/>
        <path id="パス_979-5" data-name="パス 979" d="M70.49.046,28.375,17.76a.711.711,0,0,0,.035,1.326l8.159,2.926a.583.583,0,0,1,.328.8L.059,98.79a.583.583,0,0,0,.381.819L47.69,111.594a1.079,1.079,0,0,0,1.277-.67L79.734,28.306a.582.582,0,0,1,.635-.372L89.187,29.3a1.093,1.093,0,0,0,1.064-1.706L71.194.25A.582.582,0,0,0,70.49.046Z" transform="translate(0.254 0)" fill="#fff" stroke="#d54a46" stroke-linecap="round" stroke-miterlimit="10" stroke-width="2"/>
      </g>
    </g>
    <g id="グループ_896" data-name="グループ 896" transform="translate(-443 326)">
      <g id="グループ_893-2" data-name="グループ 893" transform="translate(1249.338 1981.93) rotate(159)">
        <path id="パス_978-6" data-name="パス 978" d="M85.4,24.451,59.23,105.606a1.3,1.3,0,0,1-1.514.869L8.957,95.732a1.531,1.531,0,0,1-1.009-.751L0,80.69,36.678,15.48,28.823,13.1A1.162,1.162,0,0,1,27.7,12.007l-.609-9.889a2,2,0,0,1,2.232-2.1L86.97,7.044a3.76,3.76,0,0,1,3.165,2.718l4.371,15.608a1.037,1.037,0,0,1-1.319,1.265l-7.364-2.4A.332.332,0,0,0,85.4,24.451Z" transform="translate(0 18.743)" fill="#d54a46" stroke="#d54a46" stroke-linecap="round" stroke-miterlimit="10" stroke-width="2"/>
        <line id="線_3-6" data-name="線 3" x1="4.781" y1="15.261" transform="translate(80.622 27.933)" fill="none" stroke="#fff" stroke-linecap="round" stroke-miterlimit="10" stroke-width="2"/>
        <line id="線_4-6" data-name="線 4" x1="7.967" y1="16.733" transform="translate(60.037 79.654)" fill="none" stroke="#fff" stroke-linecap="round" stroke-miterlimit="10" stroke-width="2"/>
        <line id="線_5-6" data-name="線 5" x1="7.967" y1="16.733" transform="translate(55.575 92.718)" fill="none" stroke="#fff" stroke-linecap="round" stroke-miterlimit="10" stroke-width="2"/>
        <line id="線_6-6" data-name="線 6" x1="7.967" y1="16.733" transform="translate(63.744 67.01)" fill="none" stroke="#fff" stroke-linecap="round" stroke-miterlimit="10" stroke-width="2"/>
        <line id="線_7-6" data-name="線 7" x1="7.967" y1="16.733" transform="translate(69.137 53.429)" fill="none" stroke="#fff" stroke-linecap="round" stroke-miterlimit="10" stroke-width="2"/>
        <line id="線_8-6" data-name="線 8" x1="7.967" y1="16.733" transform="translate(71.486 40.354)" fill="none" stroke="#fff" stroke-linecap="round" stroke-miterlimit="10" stroke-width="2"/>
        <line id="線_9-6" data-name="線 9" x1="7.967" y1="16.733" transform="translate(74.772 33.966)" fill="none" stroke="#fff" stroke-linecap="round" stroke-miterlimit="10" stroke-width="2"/>
        <line id="線_10-6" data-name="線 10" x1="9.617" y1="15.842" transform="translate(48.787 109.366)" fill="none" stroke="#fff" stroke-linecap="round" stroke-miterlimit="10" stroke-width="2"/>
        <line id="線_11-6" data-name="線 11" x1="9.617" y1="15.842" transform="translate(38.158 106.778)" fill="none" stroke="#fff" stroke-linecap="round" stroke-miterlimit="10" stroke-width="2"/>
        <line id="線_12-6" data-name="線 12" x1="9.617" y1="15.842" transform="translate(26.555 104.312)" fill="none" stroke="#fff" stroke-linecap="round" stroke-miterlimit="10" stroke-width="2"/>
        <line id="線_13-6" data-name="線 13" x1="9.617" y1="15.842" transform="translate(15.002 101.803)" fill="none" stroke="#fff" stroke-linecap="round" stroke-miterlimit="10" stroke-width="2"/>
        <line id="線_14-6" data-name="線 14" x1="9.617" y1="15.842" transform="translate(5.369 99.465)" fill="none" stroke="#fff" stroke-linecap="round" stroke-miterlimit="10" stroke-width="2"/>
        <path id="パス_979-6" data-name="パス 979" d="M70.49.046,28.375,17.76a.711.711,0,0,0,.035,1.326l8.159,2.926a.583.583,0,0,1,.328.8L.059,98.79a.583.583,0,0,0,.381.819L47.69,111.594a1.079,1.079,0,0,0,1.277-.67L79.734,28.306a.582.582,0,0,1,.635-.372L89.187,29.3a1.093,1.093,0,0,0,1.064-1.706L71.194.25A.582.582,0,0,0,70.49.046Z" transform="translate(0.254 0)" fill="#fff" stroke="#d54a46" stroke-linecap="round" stroke-miterlimit="10" stroke-width="2"/>
      </g>
    </g>
  </g>
</svg>
