<svg xmlns="http://www.w3.org/2000/svg" width="330.032" height="45" viewBox="0 0 330.032 45">
  <g id="グループ_7" data-name="グループ 7" transform="translate(-571 -2852.948)">
    <path id="パス_1019" data-name="パス 1019" d="M-67.172,1.428l7.588-7.644L-59-9.436H-80.752l.532,3.444h14.532l-4.62,7.42Zm-11-24.416-3.752,10H-77.7l.224,2.38h15.288l.084-2.324h3.892l-3.724-10.08Zm12.964,4.48,2.184,4.312H-76.636l2.044-4.34Zm34.776-2.632h-22.9L-50.568.84-33.1.868Zm-5.348,4.62v5.208H-47.852l-.084-5.18Zm0,8.568-.028,5.992-11.844-.028-.112-5.964ZM-2.968-19.4H-16.912l.056-2.268h-5.88l.252,2.268h-3.108l.616,4.564h3l.28,2.6h-2.968l.532,3.808h2.856l1.12,10.164H-5.852L-4.788-5.8-8.2-5.824-8.288-.868l-9.352.056.28-7.616H-4.4l.532-3.808H-17.22l.112-2.6H-3.584Z" transform="translate(904 2884.948)" fill="#c40018"/>
    <path id="パス_1018" data-name="パス 1018" d="M24.052-11.872H19.236L20.58-.336h2.576Zm1.876-7.364H16.856l.252-2.884h-6.5l.252,2.884H2.184l.7,4.788h8.4l1.4,15.54H15.2l1.26-15.54H25.2ZM8.736-12.1H3.948L4.7-.364h2.66ZM52.92-4.816,46.9-2.576l2.044-18.76H42.532L43.456.98l2.884.056L52.3-1.008ZM39-20.832H32.76l1.2,12.8L31.892,1.036h3.164l3.108-9.3Zm42.056.14H58.24l.7,5.012h3.64l.28,2.632H59.416l.476,4.032h3.416L64.372.644,78.232.616,78.708-2.3H67.172l.308-6.72H79.66l.476-4.032H67.648l.084-2.632H80.584Zm17,6.86-.028-5.152h-11.4l.728,5.124Zm11.48-5.964h-5.348l-.812,17.864H88.928L89.292.924h16.492Zm27.944,2.52.672-4.9H114.128l.7,4.9H123.2l.448,4.928h-7.112l.616,3.864h6.832l.532,5.936H116.34l.42,2.94h18.62l.392-2.94h-7.924l.56-5.936h6.832l.56-3.864h-7l.42-4.928Zm28,.308.7-4.648H142.072l.644,4.62h14.028l-5.46,3.78.28,2.408h-8.288l.616,3.7h8.12l1.064,8.848h2.212l.924-8.82H164.5l.448-3.724H156.6l.056-.672Zm27.5,4.48h-2.212l-.2,3.416h2.016Zm1.316-8.036-24.276-.028.588,4.788h14.532L174.16-6.272l.364,3.612,15.484,4.676.336-2.6L178-4.928,187.88-12.1l-.056,3.024h1.988l.28-3.416h-1.68l5.152-3.7Z" transform="translate(624 2884.948)" fill="#fff"/>
    <g id="グループ_6" data-name="グループ 6" transform="translate(571 2851)">
      <path id="パス_1017" data-name="パス 1017" d="M12.758-14.914A100.215,100.215,0,0,1,5.93-2.516L1.977-4.672A76,76,0,0,0,9.523-18.328l3.953,2.156Q14.555-15.273,12.758-14.914Zm6.109-21.2h3.773q1.977.359.359,1.438v8.625H39.531V-22.1H23V2.875H18.867V-22.1H2.7v-3.953H18.867ZM37.375-3.055a65.011,65.011,0,0,0-9.164-12.4l3.414-2.875a66.042,66.042,0,0,1,9.7,12.578Z" transform="translate(1 39.948)" fill="#fff"/>
      <g id="楕円形_1" data-name="楕円形 1" transform="translate(0 1.948)" fill="none" stroke="#fff" stroke-width="5">
        <circle cx="22.5" cy="22.5" r="22.5" stroke="none"/>
        <circle cx="22.5" cy="22.5" r="20" fill="none"/>
      </g>
    </g>
  </g>
</svg>
