<svg xmlns="http://www.w3.org/2000/svg" width="140.352" height="21.408" viewBox="0 0 140.352 21.408">
  <g id="グループ_986" data-name="グループ 986" transform="translate(-40.136 -1444.32)">
    <path id="パス_1016" data-name="パス 1016" d="M-68.616-10.8l1.752,12.168h2.208l-.024-4.776h4.56l5.184,4.7h2.4L-54.312-.72h1.968l.144-1.9h-3.744l-.72-.792h4.392l.648-7.3h1.992l-3.24-8.976H-67.2l-3.336,8.88Zm14.064-.048L-54.6-9.36H-64.728l-.024-1.488ZM-64.7-5.76V-7.008h10.056l-.024,1.248Zm8.88-10.08.912,2.04h-2.232l.024-1.464h-5.016l.144,1.464h-2.9l.768-2.064Zm30.648-3.84H-27.36l-.36,3.432h1.992Zm-2.9,0h-2.208v3.432h1.872ZM-26.28.528-30.792-17.28H-44.064L-44.688-2.9l2.592.024,1.9-10.272h6L-28.488.528Zm24.768-18.12L-22.3-17.616l.5,4.08H-9.336L-18.744-5.4l.312,3.1L-5.16,1.728l.312-2.256-10.608-3.7,13.344-9.648Z" transform="translate(182 1464)" fill="#c40018"/>
    <path id="パス_1015" data-name="パス 1015" d="M21.744-17.928,2.136-18l.528,3.912,10.824-.048L3.216-9.72,3.6-7.1H14.3L4.512-.816,4.8,1.416l14.616.024.24-2.256H8.616l11.712-6.5.36-2.688h-10.1l10.632-4.176Zm24.312.72H25.944L28.128.624,35.736.6l1.632-14.016h4.56L41.64-1.68l-3.264.024.048,2.28h5.208ZM33.648-1.608H30.312l.024-11.808h3.12ZM55.992-16.464a14.507,14.507,0,0,1,2.088-.144h1.3v13.9A15.139,15.139,0,0,1,59.184,0h2.28a15.312,15.312,0,0,1-.192-2.712V-14.376a39.379,39.379,0,0,1,.216-3.984,13.665,13.665,0,0,1-1.992.12H57.984a11.623,11.623,0,0,1-1.992-.12Z" transform="translate(38 1464)" fill="#fff"/>
  </g>
</svg>
