<svg xmlns="http://www.w3.org/2000/svg" width="140.4" height="21.696" viewBox="0 0 140.4 21.696">
  <g id="グループ_987" data-name="グループ 987" transform="translate(-40.136 -1626.032)">
    <path id="パス_1020" data-name="パス 1020" d="M-68.136-13.3a16.369,16.369,0,0,1-2.424-.144v1.632a17.06,17.06,0,0,1,2.424-.144h4.752a17.886,17.886,0,0,1-7.776,6.48,4.329,4.329,0,0,1,1.08,1.3,26.326,26.326,0,0,0,3.672-2.448V-.552a12.612,12.612,0,0,1-.144,2.136H-64.9V.192h9.672V1.584h1.656a14.707,14.707,0,0,1-.144-2.136v-6.12a21.29,21.29,0,0,0,4.1,2.256,5.065,5.065,0,0,1,.936-1.392,17.615,17.615,0,0,1-5.472-2.928,17.6,17.6,0,0,1-3.192-3.216h5.472a16.826,16.826,0,0,1,2.424.144V-13.44a15.928,15.928,0,0,1-2.424.144h-9.072a21.448,21.448,0,0,0,1.392-3.576,48.67,48.67,0,0,0,7.8-1.752l-1.176-1.344c-2.568,1.32-9.888,2.448-16.392,2.5a4.6,4.6,0,0,1,.6,1.44c2.208-.1,4.8-.312,7.536-.624a18.358,18.358,0,0,1-1.416,3.36Zm9.144,1.344a19.064,19.064,0,0,0,3.96,4.272H-65.184a17.728,17.728,0,0,0,3.5-4.272Zm-5.9,5.64h9.672v5.136H-64.9Zm38.28-4.1h-3.552l-.144,9.648L-34.3-.744l.5-9.648h-6.864l.168-7.9-4.92.048L-42.96,1.392l2.112-.048L-40.7-7.08h3.48l.7,8.424h8.352ZM-2.592-10.7h-1.9l-.168,2.928h1.728Zm1.128-6.888-20.808-.024.5,4.1H-9.312L-18.72-5.376l.312,3.1L-5.136,1.728-4.848-.5l-10.584-3.72,8.472-6.144-.048,2.592h1.7l.24-2.928H-6.5l4.416-3.168Z" transform="translate(182 1646)" fill="#c40018"/>
    <path id="パス_1021" data-name="パス 1021" d="M21.744-17.928,2.136-18l.528,3.912,10.824-.048L3.216-9.72,3.6-7.1H14.3L4.512-.816,4.8,1.416l14.616.024.24-2.256H8.616l11.712-6.5.36-2.688h-10.1l10.632-4.176Zm24.312.72H25.944L28.128.624,35.736.6l1.632-14.016h4.56L41.64-1.68l-3.264.024.048,2.28h5.208ZM33.648-1.608H30.312l.024-11.808h3.12ZM63.456,0a26.99,26.99,0,0,1,2.952.144V-1.872A20.953,20.953,0,0,1,63.48-1.7H55.824a6.725,6.725,0,0,1,1.368-2.784A13.069,13.069,0,0,1,60.648-7.44c2.736-1.824,3.36-2.28,4.08-3.1a5.009,5.009,0,0,0,1.416-3.408c0-2.832-2.328-4.656-5.952-4.656a6.135,6.135,0,0,0-4.824,1.848A6.526,6.526,0,0,0,53.856-13.3l2.016.336a4.856,4.856,0,0,1,.84-2.424,3.969,3.969,0,0,1,3.48-1.56c2.448,0,3.984,1.176,3.984,3,0,1.464-.792,2.52-3.168,4.128a32.584,32.584,0,0,0-3.672,2.64,10.535,10.535,0,0,0-3.12,4.128,11.03,11.03,0,0,0-.7,3.192A13.931,13.931,0,0,1,56.16,0Z" transform="translate(38 1646)" fill="#fff"/>
  </g>
</svg>
