<svg xmlns="http://www.w3.org/2000/svg" width="163.272" height="20.544" viewBox="0 0 163.272 20.544">
  <g id="グループ_988" data-name="グループ 988" transform="translate(-40.136 -1808.896)">
    <path id="パス_1023" data-name="パス 1023" d="M-74.184-17.328h-19.56l1.32,8.544h3.48l.264-4.272h9.312L-83.88,1.176h2.52l6.576-14.208ZM-50.592-19.1l-18.744,9,.6,3.5,7.272-2.784,1.032,10.7h2.112l1.128-12.36,6-2.3Zm24.408,1.776h-19.56l1.32,8.544h3.48l.264-4.272h9.312L-35.88,1.176h2.52l6.576-14.208ZM-2.592-19.1l-18.744,9,.6,3.5,7.272-2.784,1.032,10.7h2.112l1.128-12.36,6-2.3Z" transform="translate(206 1828)" fill="#c40018"/>
    <path id="パス_1022" data-name="パス 1022" d="M21.744-17.928,2.136-18l.528,3.912,10.824-.048L3.216-9.72,3.6-7.1H14.3L4.512-.816,4.8,1.416l14.616.024.24-2.256H8.616l11.712-6.5.36-2.688h-10.1l10.632-4.176Zm24.312.72H25.944L28.128.624,35.736.6l1.632-14.016h4.56L41.64-1.68l-3.264.024.048,2.28h5.208ZM33.648-1.608H30.312l.024-11.808h3.12Zm19.56-2.328a6.235,6.235,0,0,0,1.224,2.328C55.584-.288,57.384.36,59.808.36c4.008,0,6.5-2.016,6.5-5.256A4.4,4.4,0,0,0,64.7-8.52a5.147,5.147,0,0,0-2.952-1.032,4.929,4.929,0,0,0,2.256-.864,4.216,4.216,0,0,0,1.68-3.5c0-2.88-2.208-4.7-5.688-4.7a6.234,6.234,0,0,0-4.776,1.752,5.471,5.471,0,0,0-1.3,2.4l1.992.456a4.5,4.5,0,0,1,.768-1.728,3.771,3.771,0,0,1,3.192-1.272c2.424,0,3.864,1.2,3.864,3.264a3.305,3.305,0,0,1-.96,2.328,4.8,4.8,0,0,1-3.5,1.1,13.483,13.483,0,0,1-1.776-.12v1.872a16.829,16.829,0,0,1,1.92-.12c3.192,0,4.9,1.3,4.9,3.672,0,2.28-1.752,3.72-4.536,3.72a5.292,5.292,0,0,1-3.1-.864,3.63,3.63,0,0,1-1.464-2.256Z" transform="translate(38 1828)" fill="#fff"/>
  </g>
</svg>
