<svg xmlns="http://www.w3.org/2000/svg" width="47.682" height="38.727" viewBox="0 0 47.682 38.727">
  <path id="Icon_awesome-twitter" data-name="Icon awesome-twitter" d="M42.781,13.032c.03.424.03.847.03,1.271,0,12.919-9.833,27.8-27.8,27.8A27.616,27.616,0,0,1,0,37.72a20.216,20.216,0,0,0,2.36.121,19.571,19.571,0,0,0,12.132-4.175,9.79,9.79,0,0,1-9.137-6.777A12.324,12.324,0,0,0,7.2,27.04a10.336,10.336,0,0,0,2.572-.333,9.774,9.774,0,0,1-7.836-9.591V17a9.842,9.842,0,0,0,4.417,1.24A9.787,9.787,0,0,1,3.328,5.166a27.778,27.778,0,0,0,20.15,10.226,11.032,11.032,0,0,1-.242-2.239A9.782,9.782,0,0,1,40.149,6.467a19.24,19.24,0,0,0,6.2-2.36,9.746,9.746,0,0,1-4.3,5.385A19.591,19.591,0,0,0,47.682,7.98a21.007,21.007,0,0,1-4.9,5.053Z" transform="translate(0 -3.381)" fill="#fff"/>
</svg>
