<svg xmlns="http://www.w3.org/2000/svg" width="47.682" height="47.671" viewBox="0 0 47.682 47.671">
  <path id="Icon_awesome-instagram" data-name="Icon awesome-instagram" d="M23.841,13.851A12.222,12.222,0,1,0,36.063,26.073,12.2,12.2,0,0,0,23.841,13.851Zm0,20.169a7.946,7.946,0,1,1,7.946-7.946A7.961,7.961,0,0,1,23.841,34.02ZM39.414,13.351A2.851,2.851,0,1,1,36.563,10.5,2.844,2.844,0,0,1,39.414,13.351Zm8.1,2.893c-.181-3.819-1.053-7.2-3.851-9.989S37.489,2.6,33.67,2.405c-3.936-.223-15.733-.223-19.669,0-3.808.181-7.191,1.053-9.989,3.84S.354,12.415.162,16.234C-.061,20.17-.061,31.967.162,35.9c.181,3.819,1.053,7.2,3.851,9.989S10.183,49.55,14,49.742c3.936.223,15.733.223,19.669,0,3.819-.181,7.2-1.053,9.989-3.851s3.659-6.17,3.851-9.989c.223-3.936.223-15.722,0-19.658ZM42.425,40.125a8.045,8.045,0,0,1-4.532,4.532c-3.138,1.245-10.584.957-14.052.957s-10.925.277-14.052-.957a8.045,8.045,0,0,1-4.532-4.532C4.013,36.987,4.3,29.541,4.3,26.073s-.277-10.925.957-14.052A8.045,8.045,0,0,1,9.789,7.49c3.138-1.245,10.584-.957,14.052-.957s10.925-.277,14.052.957a8.045,8.045,0,0,1,4.532,4.532c1.245,3.138.957,10.584.957,14.052S43.669,37,42.425,40.125Z" transform="translate(0.005 -2.238)" fill="#fff"/>
</svg>
