<svg xmlns="http://www.w3.org/2000/svg" width="689.535" height="686.117" viewBox="0 0 689.535 686.117">
  <g id="グループ_965" data-name="グループ 965" transform="translate(-609.177 -1053.883)">
    <g id="グループ_964" data-name="グループ 964">
      <g id="グループ_6" data-name="グループ 6" transform="translate(785.956 797.415) rotate(21)" opacity="0.1">
        <path id="パス_1010" data-name="パス 1010" d="M149.488-174.754Q117.906-105.273,69.48-29.477L23.16-54.742a890.555,890.555,0,0,0,88.43-160.016l46.32,25.266Q170.543-178.965,149.488-174.754ZM221.074-423.2h44.215q23.16,4.211,4.211,16.844v101.063H463.2v46.32H269.5V33.688H221.074v-292.66H31.582v-46.32H221.074ZM437.938-35.793A761.758,761.758,0,0,0,330.559-181.07l40-33.687q75.8,80.008,113.7,147.383Z" transform="translate(119.019 664)" fill="#c40018"/>
        <g id="楕円形_1" data-name="楕円形 1" transform="translate(104 234.793)" fill="none" stroke="#c40018" stroke-width="30">
          <ellipse cx="267.683" cy="264.712" rx="267.683" ry="264.712" stroke="none"/>
          <ellipse cx="267.683" cy="264.712" rx="252.683" ry="249.712" fill="none"/>
        </g>
      </g>
      <path id="パス_1025" data-name="パス 1025" d="M32.025-52.95,19.2-53.025,18.3-40.8l11.85.075ZM29.85-35.925H-.825l.3-4.95H15.15l.825-12.075H.225L.6-59.775H-14.475l.6,6.825h-18.15l1.575,12.075H-12.9l.525,4.95H-29.4l5.475,40.2h20.7l1.8-30.075,19.875-.075L18.375-2.55,4.725-2.625,5.1,4.5l19.575-.075ZM-9.525-2.325h-8.1L-18.75-25.8h7.2ZM-30.6,52.725h9.225L-21,42.9H21.75l.075,10.05H31.05L33.375,33.3h-24l.3-5.775H-8.25l.225,5.775H-33Zm2.775,24.45,1.125,7.05,6.075-3.675L-18.3,92.625l37.2-.15,2.25-11.55L26.7,84l1.05-7.05L6.675,63.9l12.45-7.5L19.2,45.075H-16.125l-9.9,19.5H-16.5l2.4-3.375,5.7,3.15Zm16.2,9.3-.075-4.65H12.45v4.65ZM9.225,74.25H-10.2l-.6.3,9.825-5.925Zm-18.3-20.1.225-.3H7.5L-.75,59.325Zm42.9,72.975H29.25l1.2-8.025H17.7l-.225,8.025h-7.8V119.1H-2.55l.6,8.025H-6.525l.6,11.025H5.925l.15,2.55H-5.85l.15,9.15H6.45l.15,2.85H-5.7v7.95H6.975L7.5,171.825H-.9L-6.75,182.4H.3l7.275-10.05L8.1,183.975h5.625l.975-9,5.025,7.575h6.45l-4.425-8.625,6.75-10.95H20.4l-2.25,3.975-2.1-4.125.225-2.175h12.3l1.05-7.95H17.1l.3-2.85H30.525l.9-9.15H18.45l.225-2.55h13.5ZM5.7,169.65v-6.675H-5.4l.225,6.675ZM-7.8,141.6l-.225-12h-5.85V119.4h-13.8l1.275,10.2h-7.05l1.575,12H-25.8l-3.825,14.325,2.55,13.275,4.35-11.25,3.375,25.65h5.475V153.825l6.075,6.6-.525-11.1L-12.9,141.6Zm39,76.05h-42l.225,11.85h28.2l-.225,7.575H28.2Zm-5.7,47.475H-.675V257.7H-9.75l.3,14.775H24.675Zm-41.4-50.55H-31.35l8.475,60.075h6.45Z" transform="translate(1044 1249)" fill="#3f3f3f"/>
      <path id="パス_1024" data-name="パス 1024" d="M28.35-21.6H-11.475l1.05,19.2H-12.75V3.3H28.575l.75-5.85H25.8ZM20.175-2.55H16.2l.75-11.1h3.3Zm-14.1.075.6-11.325,3.45.075.525,11.25ZM-4.125-13.8H.3L.675-2.475h-4.8Zm30.45-9.975,4.65-34.95h-43.05L-9.6-23.775Zm-28.2-8.1V-35.85H20.1v3.975ZM20.1-47.4v4.5H-1.875v-4.575ZM-32.475-57.75l2.625,13.8h15.375l-.3-13.8ZM-15.3-37.95H-29.85l2.55,13.5H-15ZM-25.95-16.725-21.975,3.75h7.425l-.375-20.475ZM32.025,31.95l-14.175.075,1.5,37.2,8.175-.075ZM15.9,40.35H-13.125l.225-9.75-15.15-.15,1.05,9.9h-5.475l1.65,12.3h5.175l4.5,41.775,6.45.075,1.2-41.85H3L4.125,87.675h-11.1l.075,6.75,17.55-.075ZM32.55,127.8l-21.15.075.3,10.95.15,21h-23.7l1.575,24.45h28.2l2.025-15.75H27.6l1.275-8.7h-7.8l2.55-19.8h7.05Zm-27,0H-13.875l.45-7.05h-15.15l.9,7.05H-32.1l1.95,12.225h3.9l3.45,29.1h6.525l1.725-29.1H5.175Zm6.375,50.475H-3.225l.15-9.75H11.85ZM-23.55,265.95l.675,5.7h49.2l.975-5.7H6.225l.75-6.9h16.2l.9-7.8H-21l.825,7.8h16.95l.675,6.9ZM-.675,228.825H-15.3l-8.625,20.925h11.25ZM30.75,240.45H15.975V228.375H3.9l2.4,20.55H30.075Zm-50.7-5.7.075-9.15h40.95l.075,9.375h10.2l2.4-20.025H9.9l.15-6.375H-7.725l.15,6.375h-24.75L-30,234.75Zm6.525,127.35h28.8l1.875-21.75H-14.7Zm6.45-4.8v-2.475H8.85V357.3ZM8.7,347.55l.075,3.075H-6.9l.075-3.075ZM2.25,301.2v35.25h19.2l-.6,27.3h6.225L33.75,301.2Zm19.725,12.225-.15,4.35h-10.8l.225-4.35ZM10.65,328.65l.15-4.125H21.675L21.6,328.65Zm-35.925,35.1h6.225l-.6-27.3H-.375L-.3,301.2H-31.95Zm5.475-35.1-.075-4.125H-9l.225,4.125Zm10.35-15.225.225,4.35h-10.8l-.075-4.35Zm39.825,82.95H2.55L6.3,390.75H-10.575l-2.7,5.625h-16.95L-28.65,408.3h9.525l-7.2,14.775,1.125,9.3h12.9l-11.325,14.85.825,7.125H22.875l.825-6.9H-13.95L-.825,432.375H25.5l1.125-9.15H7.125L14.4,414.9l-13.575.075-6.225,8.25h-9.975L-5.4,408.3H28.425Z" transform="translate(874 1249)" fill="#3f3f3f"/>
    </g>
  </g>
</svg>
