<svg xmlns="http://www.w3.org/2000/svg" width="689.535" height="712.283" viewBox="0 0 689.535 712.283">
  <g id="グループ_965" data-name="グループ 965" transform="translate(-609.177 -1027.717)">
    <g id="グループ_964" data-name="グループ 964">
      <g id="グループ_6" data-name="グループ 6" transform="translate(785.956 797.415) rotate(21)" opacity="0.1">
        <text id="ホ" transform="translate(119.019 664)" fill="#c40018" font-size="539" font-family="MS-PGothic, MS PGothic"><tspan x="0" y="0">ホ</tspan></text>
        <g id="楕円形_1" data-name="楕円形 1" transform="translate(104 234.793)" fill="none" stroke="#c40018" stroke-width="30">
          <ellipse cx="267.683" cy="264.712" rx="267.683" ry="264.712" stroke="none"/>
          <ellipse cx="267.683" cy="264.712" rx="252.683" ry="249.712" fill="none"/>
        </g>
      </g>
      <text id="ア_ル_コ_ル" data-name="ア
ル
コ

ル" transform="translate(776 1121)" fill="#3f3f3f" font-size="64" font-family="TA-F1blockline"><tspan x="0" y="0">ア</tspan><tspan x="0" y="77">ル</tspan><tspan x="0" y="154">コ</tspan><tspan x="0" y="231"></tspan><tspan x="0" y="308">ル</tspan></text>
      <text id="コ_ミ_ュ_ニ_ケ_シ_ョ_ン" data-name="コ
ミ
ュ
ニ
ケ

シ
ョ
ン" transform="translate(928 1113)" fill="#3f3f3f" font-size="64" font-family="TA-F1blockline"><tspan x="0" y="0">コ</tspan><tspan x="0" y="77">ミ</tspan><tspan x="0" y="154">ュ</tspan><tspan x="0" y="231">ニ</tspan><tspan x="0" y="308">ケ</tspan><tspan x="0" y="385"></tspan><tspan x="0" y="462">シ</tspan><tspan x="0" y="539">ョ</tspan><tspan x="0" y="616">ン</tspan></text>
      <text id="セ_ン_タ" data-name="セ
ン
タ" transform="translate(1080 1121)" fill="#3f3f3f" font-size="64" font-family="TA-F1blockline"><tspan x="0" y="0">セ</tspan><tspan x="0" y="77">ン</tspan><tspan x="0" y="154">タ</tspan></text>
    </g>
    <text id="_ー" data-name="ー" transform="translate(936 1441) rotate(90)" fill="#3f3f3f" font-size="64" font-family="TA-F1blockline"><tspan x="0" y="0">ー</tspan></text>
    <text id="_ー-2" data-name="ー" transform="translate(1088 1290) rotate(90)" fill="#3f3f3f" font-size="64" font-family="TA-F1blockline"><tspan x="0" y="0">ー</tspan></text>
    <text id="_ー-3" data-name="ー" transform="translate(784 1298) rotate(90)" fill="#3f3f3f" font-size="64" font-family="TA-F1blockline"><tspan x="0" y="0">ー</tspan></text>
  </g>
</svg>
