<svg xmlns="http://www.w3.org/2000/svg" width="689.535" height="686.117" viewBox="0 0 689.535 686.117">
  <g id="グループ_965" data-name="グループ 965" transform="translate(-609.177 -1053.883)">
    <g id="グループ_964" data-name="グループ 964">
      <g id="グループ_6" data-name="グループ 6" transform="translate(785.956 797.415) rotate(21)" opacity="0.1">
        <path id="パス_1010" data-name="パス 1010" d="M149.488-174.754Q117.906-105.273,69.48-29.477L23.16-54.742a890.555,890.555,0,0,0,88.43-160.016l46.32,25.266Q170.543-178.965,149.488-174.754ZM221.074-423.2h44.215q23.16,4.211,4.211,16.844v101.063H463.2v46.32H269.5V33.688H221.074v-292.66H31.582v-46.32H221.074ZM437.938-35.793A761.758,761.758,0,0,0,330.559-181.07l40-33.687q75.8,80.008,113.7,147.383Z" transform="translate(119.019 664)" fill="#c40018"/>
        <g id="楕円形_1" data-name="楕円形 1" transform="translate(104 234.793)" fill="none" stroke="#c40018" stroke-width="30">
          <ellipse cx="267.683" cy="264.712" rx="267.683" ry="264.712" stroke="none"/>
          <ellipse cx="267.683" cy="264.712" rx="252.683" ry="249.712" fill="none"/>
        </g>
      </g>
      <path id="パス_1009" data-name="パス 1009" d="M65.85-21.6H26.025l1.05,19.2H24.75V3.3H66.075l.75-5.85H63.3ZM57.675-2.55H53.7l.75-11.1h3.3Zm-14.1.075.6-11.325,3.45.075.525,11.25ZM33.375-13.8H37.8l.375,11.325h-4.8Zm30.45-9.975,4.65-34.95H25.425L27.9-23.775Zm-28.2-8.1V-35.85H57.6v3.975ZM57.6-47.4v4.5H35.625v-4.575ZM5.025-57.75,7.65-43.95H23.025l-.3-13.8ZM22.2-37.95H7.65l2.55,13.5H22.5ZM11.55-16.725,15.525,3.75H22.95l-.375-20.475ZM69.525,31.95l-14.175.075,1.5,37.2,8.175-.075ZM53.4,40.35H24.375L24.6,30.6,9.45,30.45l1.05,9.9H5.025l1.65,12.3H11.85l4.5,41.775,6.45.075L24,52.65H40.5l1.125,35.025h-11.1l.075,6.75,17.55-.075ZM13.95,175.95l.675,5.7h49.2l.975-5.7H43.725l.75-6.9h16.2l.9-7.8H16.5l.825,7.8h16.95l.675,6.9Zm22.875-37.125H22.2L13.575,159.75h11.25ZM68.25,150.45H53.475V138.375H41.4l2.4,20.55H67.575Zm-50.7-5.7.075-9.15h40.95l.075,9.375h10.2l2.4-20.025H47.4l.15-6.375H29.775l.15,6.375H5.175L7.5,144.75ZM24.075,272.1h28.8l1.875-21.75H22.8Zm6.45-4.8v-2.475H46.35V267.3ZM46.2,257.55l.075,3.075H30.6l.075-3.075ZM39.75,211.2v35.25h19.2l-.6,27.3h6.225L71.25,211.2Zm19.725,12.225-.15,4.35h-10.8l.225-4.35ZM48.15,238.65l.15-4.125H59.175L59.1,238.65Zm-35.925,35.1H18.45l-.6-27.3H37.125L37.2,211.2H5.55Zm5.475-35.1-.075-4.125H28.5l.225,4.125Zm10.35-15.225.225,4.35h-10.8l-.075-4.35Zm39.825,82.95H40.05l3.75-5.625H26.925l-2.7,5.625H7.275L8.85,318.3h9.525l-7.2,14.775,1.125,9.3H25.2l-11.325,14.85.825,7.125H60.375l.825-6.9H23.55l13.125-15.075H63l1.125-9.15h-19.5L51.9,324.9l-13.575.075-6.225,8.25H22.125L32.1,318.3H65.925Z" transform="translate(833 1242)" fill="#3f3f3f"/>
      <path id="パス_1008" data-name="パス 1008" d="M69.525-52.95,56.7-53.025,55.8-40.8l11.85.075ZM67.35-35.925H36.675l.3-4.95H52.65l.825-12.075H37.725l.375-6.825H23.025l.6,6.825H5.475L7.05-40.875H24.6l.525,4.95H8.1l5.475,40.2h20.7l1.8-30.075,19.875-.075L55.875-2.55l-13.65-.075L42.6,4.5l19.575-.075ZM27.975-2.325h-8.1L18.75-25.8h7.2ZM6.9,52.725h9.225L16.5,42.9H59.25l.075,10.05H68.55L70.875,33.3h-24l.3-5.775H29.25l.225,5.775H4.5Zm2.775,24.45,1.125,7.05,6.075-3.675L19.2,92.625l37.2-.15,2.25-11.55L64.2,84l1.05-7.05L44.175,63.9l12.45-7.5L56.7,45.075H21.375l-9.9,19.5H21L23.4,61.2l5.7,3.15Zm16.2,9.3-.075-4.65H49.95v4.65ZM46.725,74.25H27.3l-.6.3,9.825-5.925Zm-18.3-20.1.225-.3H45l-8.25,5.475Zm42.9,72.975H66.75l1.2-8.025H55.2l-.225,8.025h-7.8V119.1H34.95l.6,8.025H30.975l.6,11.025h11.85l.15,2.55H31.65l.15,9.15H43.95l.15,2.85H31.8v7.95H44.475L45,171.825H36.6L30.75,182.4H37.8l7.275-10.05.525,11.625h5.625l.975-9,5.025,7.575h6.45l-4.425-8.625L66,162.975H57.9l-2.25,3.975-2.1-4.125.225-2.175h12.3l1.05-7.95H54.6l.3-2.85H68.025l.9-9.15H55.95l.225-2.55h13.5ZM43.2,169.65v-6.675H32.1l.225,6.675ZM29.7,141.6l-.225-12h-5.85V119.4H9.825L11.1,129.6H4.05l1.575,12H11.7L7.875,155.925l2.55,13.275,4.35-11.25L18.15,183.6h5.475V153.825l6.075,6.6-.525-11.1L24.6,141.6Zm39,76.05h-42l.225,11.85h28.2l-.225,7.575H65.7ZM63,265.125H36.825V257.7H27.75l.3,14.775H62.175Zm-41.4-50.55H6.15l8.475,60.075h6.45Z" transform="translate(1012 1251)" fill="#3f3f3f"/>
    </g>
  </g>
</svg>
