<svg xmlns="http://www.w3.org/2000/svg" width="1787.568" height="853.322" viewBox="0 0 1787.568 853.322">
  <g id="グループ_966" data-name="グループ 966" transform="translate(-89.144 -1911.379)">
    <path id="パス_1011" data-name="パス 1011" d="M275.7-215.1H24.3L51.6,7.8l95.1-.3,20.4-175.2h57L220.5-21l-40.8.3.6,28.5h65.1ZM120.6-20.1H78.9l.3-147.6h39ZM567.3-130.2H522.9L521.1-9.6l-49.8.3,6.3-120.6H391.8l2.1-98.7-61.5.6L363,17.4l26.4-.6,1.8-105.3h43.5l8.7,105.3H547.8Zm300.3-3.6H843.9l-2.1,36.6h21.6Zm14.1-86.1-260.1-.3,6.3,51.3H783.6L666-67.2l3.9,38.7L835.8,21.6l3.6-27.9L707.1-52.8,813-129.6l-.6,32.4h21.3l3-36.6h-18l55.2-39.6Z" transform="translate(163.732 2491.184) rotate(-25)" fill="#fff"/>
    <path id="パス_1012" data-name="パス 1012" d="M136.8-233.4h-72v-12.3H15l13.2,83.1H65.1v-22.5H75L79.5-150h39.9l.3-34.8h20.1Zm59.4,0,1.8-12.3H142.5l8.1,80.4h36.9l3-21.9h14.4l-.3,37.2h39.3l5.4-37.2h31.8l7.5-46.2Zm57,130.8,4.5-39H44.1l4.2,39h62.1l-9,19.8H39.6l4.5,34.2H85.5L57,12.6H86.7l40.2-61.2h38.7l50.7,60.9h26.4L207-48.6h51l4.5-34.2H149.4l12.9-19.8ZM531-129.9l-159.9-.3,5.1,34.8H486.6L476.1-6.3H399.9L402,13.8h89.4Zm350.1-90-259.8-.3,6.3,51H783.3L665.7-67.5l3.9,38.7L835.5,21.6l3.9-28.2L706.8-52.8,873.6-173.4Z" transform="translate(1069.036 2751.464) rotate(-25)" fill="#fff"/>
  </g>
</svg>
