<svg xmlns="http://www.w3.org/2000/svg" width="360.954" height="315.413" viewBox="0 0 360.954 315.413">
  <g id="グループ_977" data-name="グループ 977" transform="translate(-8.799 -1009.156)">
    <path id="パス_1013" data-name="パス 1013" d="M64.33-50.19H5.67L12.04,1.82l22.19-.07,4.76-40.88h13.3L51.45-4.9l-9.52.07.14,6.65H57.26ZM28.14-4.69H18.41l.07-34.44h9.1ZM132.37-30.38H122.01l-.42,28.14-11.62.07,1.47-28.14H91.42l.49-23.03-14.35.14L84.7,4.06l6.16-.14.42-24.57h10.15l2.03,24.57h24.36Zm70.07-.84h-5.53l-.49,8.54h5.04Zm3.29-20.09-60.69-.07,1.47,11.97h36.33L155.4-15.68l.91,9.03L195.02,5.04l.84-6.51L164.99-12.32,189.7-30.24l-.14,7.56h4.97l.7-8.54h-4.2l12.88-9.24Z" transform="translate(26.202 1144.443) rotate(-25)" fill="#fff"/>
    <path id="パス_1014" data-name="パス 1014" d="M31.92-54.46H15.12v-2.87H3.5L6.58-37.94h8.61v-5.25H17.5L18.55-35h9.31l.07-8.12h4.69Zm13.86,0,.42-2.87H33.25l1.89,18.76h8.61l.7-5.11h3.36L47.74-35h9.17l1.26-8.68h7.42l1.75-10.78Zm13.3,30.52,1.05-9.1H10.29l.98,9.1H25.76l-2.1,4.62H9.24l1.05,7.98h9.66L13.3,2.94h6.93l9.38-14.28h9.03L50.47,2.87h6.16L48.3-11.34H60.2l1.05-7.98H34.86l3.01-4.62Zm64.82-6.37-37.31-.07,1.19,8.12h25.76L111.09-1.47H93.31l.49,4.69h20.86Zm81.69-21-60.62-.07,1.47,11.9h36.33L155.33-15.75l.91,9.03L194.95,5.04l.91-6.58L164.92-12.32l38.92-28.14Z" transform="translate(181.294 1321.48) rotate(-25)" fill="#fff"/>
  </g>
</svg>
