<svg xmlns="http://www.w3.org/2000/svg" xmlns:xlink="http://www.w3.org/1999/xlink" width="107.94" height="49.584" viewBox="0 0 107.94 49.584">
  <defs>
    <linearGradient id="linear-gradient" x1="0.5" x2="0.5" y2="1" gradientUnits="objectBoundingBox">
      <stop offset="0" stop-color="#fff"/>
      <stop offset="1" stop-color="#7e7e7e"/>
    </linearGradient>
  </defs>
  <g id="グループ_917" data-name="グループ 917" transform="translate(-1737.044 -62.312)">
    <path id="パス_1007" data-name="パス 1007" d="M25.956-19.768,21.168-19.8l-.336,4.564,4.424.028Zm-.812,6.356H13.692L13.8-15.26h5.852l.308-4.508h-5.88l.14-2.548H8.6l.224,2.548H2.044l.588,4.508H9.184l.2,1.848H3.024L5.068,1.6H12.8l.672-11.228,7.42-.028L20.86-.952l-5.1-.028.14,2.66,7.308-.028ZM10.444-.868H7.42L7-9.632H9.688ZM54.376-21.952H42.7v12.8h7.2L49.672,1.288h2.212ZM47.516-7.784H37.1l.168,6.916h9.716Zm-5.74-14.168H30.044l2.492,23.24h2.24L34.552-9.156h7.2Zm8.288,4.564-.028,1.624H46l.084-1.624Zm-.112,4.144v1.512H45.864l.028-1.512Zm-11.536-2.52h-4l-.028-1.624H38.36Zm.168,4.032H34.5l-.056-1.512H38.5Zm5.88,8.96H40.1l.056-2.212h4.284ZM78.708,1.54l1.12-11.312H60.7l1.2,11.312ZM64.96-6.3H75.628l.364,5.488H64.736ZM61.908-22.792,58.072-12.684h3.976l.2,1.736H78.372l.224-1.708h3.668l-3.78-10.136Zm13.216,4.536,1.848,3.584H63.84l1.736-3.612Zm34.86.588H107.24l.672-4.76-5.4.028.056,4.732h-9.38l.056-4.7-5.656.028.56,4.676h-2.52l.728,4.4h2.324L90.524,1.652h15.96l.224-2.6H93.044l.084-12.32h9.52l.084,6.16h3.08l.84-6.16h2.632Z" transform="translate(1735 85.104)" fill="#3f3f3f"/>
    <path id="パス_987" data-name="パス 987" d="M25.956-2.232,21.168-2.2l-.336-4.564L25.256-6.8Zm-.812-6.356H13.692L13.8-6.74h5.852l.308,4.508h-5.88l.14,2.548H8.6L8.82-2.232H2.044L2.632-6.74H9.184l.2-1.848H3.024L5.068-23.6H12.8l.672,11.228,7.42.028-.028-8.708-5.1.028.14-2.66,7.308.028Zm-14.7-12.544H7.42L7-12.368H9.688ZM54.376-.048H42.7v-12.8h7.2l-.224-10.444h2.212Zm-6.86-14.168H37.1l.168-6.916h9.716ZM41.776-.048H30.044l2.492-23.24h2.24l-.224,10.444h7.2Zm8.288-4.564-.028-1.624H46l.084,1.624Zm-.112-4.144v-1.512H45.864l.028,1.512ZM38.416-6.236h-4l-.028,1.624H38.36Zm.168-4.032H34.5L34.44-8.756H38.5Zm5.88-8.96H40.1l.056,2.212h4.284ZM78.708-23.54l1.12,11.312H60.7l1.2-11.312ZM64.96-15.7H75.628l.364-5.488H64.736ZM61.908.792,58.072-9.316h3.976l.2-1.736H78.372L78.6-9.344h3.668L78.484.792ZM75.124-3.744l1.848-3.584H63.84l1.736,3.612Zm34.86-.588H107.24l.672,4.76L102.508.4l.056-4.732h-9.38l.056,4.7L87.584.344l.56-4.676h-2.52l.728-4.4h2.324l1.848-14.924h15.96l.224,2.6H93.044l.084,12.32h9.52l.084-6.16h3.08l.84,6.16h2.632Z" transform="translate(1735 111.104)" opacity="0.3" fill="url(#linear-gradient)"/>
  </g>
</svg>
