<svg xmlns="http://www.w3.org/2000/svg" xmlns:xlink="http://www.w3.org/1999/xlink" width="280" height="49.176" viewBox="0 0 280 49.176">
  <defs>
    <linearGradient id="linear-gradient" x1="0.5" x2="0.5" y2="1" gradientUnits="objectBoundingBox">
      <stop offset="0" stop-color="#fff"/>
      <stop offset="1" stop-color="#7e7e7e"/>
    </linearGradient>
  </defs>
  <g id="グループ_914" data-name="グループ 914" transform="translate(-1019 -60.104)">
    <text id="ホルモン王子について" transform="translate(1019 85.104)" fill="#3f3f3f" font-size="28" font-family="TA-F1blockline"><tspan x="0" y="0">ホルモン王子について</tspan></text>
    <path id="パス_982" data-name="パス 982" d="M24.052-10.128H19.236L20.58-21.664h2.576Zm1.876,7.364H16.856L17.108.12h-6.5l.252-2.884H2.184l.7-4.788h8.4l1.4-15.54H15.2l1.26,15.54H25.2ZM8.736-9.9H3.948L4.7-21.636h2.66Zm44.184-7.28-6.02-2.24L48.944-.664H42.532l.924-22.316,2.884-.056L52.3-20.992ZM39-1.168H32.76l1.2-12.8-2.072-9.072h3.164l3.108,9.3Zm42.056-.14H58.24l.7-5.012h3.64l.28-2.632H59.416l.476-4.032h3.416l1.064-9.66,13.86.028.476,2.912H67.172l.308,6.72H79.66l.476,4.032H67.648l.084,2.632H80.584Zm17-6.86-.028,5.152h-11.4L87.36-8.14ZM109.536-2.2h-5.348l-.812-17.864H88.928l.364-2.856h16.492Zm27.944-2.52.672,4.9H114.128l.7-4.9H123.2l.448-4.928h-7.112l.616-3.864h6.832l.532-5.936H116.34l.42-2.94h18.62l.392,2.94h-7.924l.56,5.936h6.832l.56,3.864h-7l.42,4.928Zm28-.308.7,4.648H142.072L142.716-5h14.028l-5.46-3.78.28-2.408h-8.288l.616-3.7h8.12l1.064-8.848h2.212l.924,8.82H164.5l.448,3.724H156.6l.056.672Zm28.168,2.576h-15.68l.084-4.424H188.58L188.5-9.708h4.032ZM191.52-20.18h-9.772v2.772H178.36l.112-5.516h12.74ZM176.064-1.308H170.3l3.164-22.428h2.408Zm45.388-.952-22.68.056L199.5-7.16h15.624l-1.456-12.628H202.832l.336-2.828h12.656Zm28.364.7h-5.572l.028-18.788h3ZM237.272-21.048l-4.732.028-.252,19.936-5.908-.028,3.388-22.568H237.1ZM278.236-1.476l-24.248.028.588-4.76h14.532L258.132-15.7l.364-3.612,15.484-4.7.364,2.632-12.376,4.312L277.536-5.816Z" transform="translate(1019 109.104)" opacity="0.3" fill="url(#linear-gradient)"/>
  </g>
</svg>
