<svg xmlns="http://www.w3.org/2000/svg" width="20.882" height="20.882" viewBox="0 0 20.882 20.882">
  <path id="Icon_awesome-phone-alt" data-name="Icon awesome-phone-alt" d="M20.286,14.756,15.718,12.8a.979.979,0,0,0-1.142.281l-2.023,2.472A15.117,15.117,0,0,1,5.327,8.325L7.8,6.3A.976.976,0,0,0,8.08,5.16L6.122.592A.985.985,0,0,0,5,.025L.759,1A.979.979,0,0,0,0,1.958,18.922,18.922,0,0,0,18.924,20.882a.979.979,0,0,0,.954-.759l.979-4.242a.991.991,0,0,0-.571-1.126Z" transform="translate(0 0)" fill="#3f3f3f"/>
</svg>
