<?xml version="1.0" standalone="no"?>
<!DOCTYPE svg PUBLIC "-//W3C//DTD SVG 20010904//EN"
 "http://www.w3.org/TR/2001/REC-SVG-20010904/DTD/svg10.dtd">
<svg version="1.0" xmlns="http://www.w3.org/2000/svg"
 width="1004.000000pt" height="1004.000000pt" viewBox="0 0 1004.000000 1004.000000"
 preserveAspectRatio="xMidYMid meet">
<metadata>
Created by potrace 1.14, written by Peter Selinger 2001-2017
</metadata>
<g transform="translate(0.000000,1004.000000) scale(0.100000,-0.100000)"
fill="#000000" stroke="none">
<path d="M4685 9839 c-622 -44 -1271 -219 -1830 -494 -256 -126 -578 -323
-790 -484 -247 -186 -578 -496 -766 -716 -421 -492 -726 -1027 -943 -1654
-110 -316 -198 -740 -238 -1136 -17 -169 -17 -691 0 -860 94 -941 411 -1773
957 -2510 255 -345 597 -692 945 -961 1032 -797 2360 -1153 3655 -979 554 75
1077 236 1561 481 493 250 881 531 1269 919 393 393 686 799 931 1294 l69 138
60 33 c91 50 88 45 54 106 l-31 54 60 163 c203 550 297 1082 297 1692 0 303
-8 426 -46 690 -74 527 -237 1051 -471 1512 l-88 175 0 145 0 144 -57 -6 c-32
-3 -68 -8 -80 -11 -19 -3 -35 16 -113 130 -243 357 -560 706 -906 998 -960
808 -2244 1225 -3499 1137z m328 -611 c11 -44 37 -265 47 -403 5 -77 10 -398
10 -713 l0 -573 -1592 4 c-1547 3 -1759 8 -1845 35 -20 6 -13 16 75 122 679
809 1629 1342 2671 1500 164 25 393 45 547 48 77 2 82 1 87 -20z m1079 -112
c474 -122 931 -326 1338 -599 383 -256 692 -542 1004 -929 l38 -48 -1296 0
-1296 0 0 568 c0 538 4 646 31 925 10 102 14 117 30 117 10 0 78 -15 151 -34z
m-4594 -2361 c31 3 104 11 162 17 67 6 702 12 1758 15 l1652 4 -2 -2318 c-3
-2222 -4 -2320 -21 -2373 -24 -70 -102 -149 -173 -175 -133 -47 -713 -19
-1196 59 -79 13 -144 23 -145 21 -5 -3 66 -777 71 -782 3 -3 63 -11 133 -19
476 -49 1308 -70 1513 -40 309 47 495 185 581 433 50 145 49 69 49 2721 l0
2472 1448 0 c797 0 1484 -3 1527 -7 l78 -6 40 -86 c172 -372 300 -847 354
-1316 24 -209 24 -691 0 -900 -28 -243 -97 -602 -135 -705 -6 -16 -21 2 -77
93 -379 617 -966 1462 -1162 1674 l-38 42 -130 -73 c-71 -40 -221 -122 -332
-182 -112 -60 -203 -112 -203 -116 0 -4 52 -73 115 -155 386 -495 864 -1241
1288 -2013 114 -206 133 -248 125 -265 -29 -55 -170 -273 -242 -374 -178 -250
-482 -581 -711 -773 -398 -334 -869 -606 -1337 -772 -691 -245 -1386 -313
-2114 -206 -651 96 -1313 365 -1869 761 -341 243 -705 601 -955 939 -129 175
-362 552 -349 564 2 2 141 -89 309 -204 l305 -208 33 32 c19 17 96 103 171
191 599 698 1292 1698 1658 2393 l65 123 -158 75 c-88 42 -246 118 -352 170
l-192 93 -55 -109 c-293 -585 -875 -1430 -1387 -2016 -116 -133 -426 -454
-438 -454 -8 0 -107 205 -141 290 -49 124 -123 343 -159 473 -191 674 -210
1416 -54 2117 103 462 324 986 583 1385 l46 70 3 -293 2 -294 58 7z"/>
</g>
</svg>
